<?xml version="1.0" standalone="no"?><?xml-stylesheet type="text/css" href="https://www.processon.com/themes/default/mind/icons/icons.css" ?><!DOCTYPE svg PUBLIC "-//W3C//DTD SVG 1.1//EN" "http://www.w3.org/Graphics/SVG/1.1/DTD/svg11.dtd"><svg xmlns="http://www.w3.org/2000/svg" xlink="http://www.w3.org/1999/xlink" id="mind-svg-con" version="1.1" style="position: absolute; left: 0px; top: 0px; width: 1301px; height: 759.5px; background: rgb(255, 249, 217) none repeat scroll 0% 0%; z-index: 999;" width="1301px" height="759.5000152587891px"><defs></defs><g id="svgbackgroundid"><defs></defs><rect x="0" y="0" width="1301" height="759.5000152587891" fill="rgb(255, 249, 217)"></rect></g><g transform="translate(-9869, -9538.999801635742)" id="sdjakdjak4"><defs></defs><g class="svg-topic-con" transform="translate(0.5,0.5)"><path part="right" sub="true" id="line_9f7ddbfc82bd" d="M 10000 9922.000396728516 C 10000 9922.000396728516 10010 9590 10181 9590" stroke="rgb(70,70,70)" fill="none" stroke-width="3"></path><path part="right" sub="true" id="line_ce493712cdcd" d="M 10000 9922.000396728516 C 10000 9922.000396728516 10010 9752 10181 9752" stroke="rgb(70,70,70)" fill="none" stroke-width="3"></path><path part="right" sub="true" id="line_21430902f4a7" d="M 10000 9922.000396728516 C 10000 9922.000396728516 10010 10084 10181 10084" stroke="rgb(70,70,70)" fill="none" stroke-width="3"></path></g><g class="svg-connection-con" transform="translate(0.5,0.5)"></g><g class="svg-freesums-con" transform="translate(0.5,0.5)"></g><g class="svg-freebos-con" transform="translate(0.5,0.5)"><path id="bo_16972ed88218" stroke-linejoin="round" fill="#bf1e1b" fill-opacity="0.05" stroke="#333333" stroke-width="1" stroke-dasharray="0" d=" M 10172 9570 C 10172 9570 10172 9560 10182 9560 L 10573 9560 C 10573 9560 10583 9560 10583 9570 L 10583 9609 C 10583 9609 10583 9619 10573 9619 L 10182 9619 C 10182 9619 10172 9619 10172 9609 L 10172 9570"></path><path id="bo_f0df92aa7f3c" stroke-linejoin="round" fill="rgb(113, 203, 45)" fill-opacity="0.05" stroke="#333333" stroke-width="2" stroke-dasharray="6,3" d=" M 10172 9891 L 10538 9891 L 10538 10277 L 10172 10277 L 10172 9891"></path></g></g><g id="21430902f4a7"><rect x="309" y="521.3000030517578" rx="1px" ry="1px" width="109" height="48" style="fill: rgb(255, 249, 217); "></rect><g><text text-anchor="start" align="top" anchor="start" font-family="微软雅黑" font-size="20px" font-weight="normal" fill="rgb(68, 68, 68)"><tspan x="323.3999938964844" y="551.7166900634766"><tspan>调度策略</tspan></tspan></text></g><image xmlns:xlink="http://www.w3.org/1999/xlink" xlink:href="https://www.processon.com/assets/images/mind/borderL.png" transform="translate(309,524.3000030517578)" width="2.4000000000000004" height="43.5" preserveAspectRatio="none meet"></image><image xmlns:xlink="http://www.w3.org/1999/xlink" xlink:href="https://www.processon.com/assets/images/mind/borderT.png" transform="translate(309,524.3000030517578)" width="109" height="1.5" preserveAspectRatio="none meet"></image><image xmlns:xlink="http://www.w3.org/1999/xlink" xlink:href="https://www.processon.com/assets/images/mind/borderB.png" transform="translate(311.1,567.8000030517578)" width="103" height="1.5" preserveAspectRatio="none meet"></image><image xmlns:xlink="http://www.w3.org/1999/xlink" xlink:href="https://www.processon.com/assets/images/mind/borderR.png" transform="translate(415.6,524.3000030517578)" width="2.4000000000000004" height="43.5" preserveAspectRatio="none meet"></image></g><g id="c73df92aa07e"><rect x="457.816650390625" y="368.00001525878906" rx="1px" ry="1px" width="178" height="37" style="fill: transparent; "></rect><g><text text-anchor="start" align="top" anchor="start" font-family="微软雅黑" font-size="17px" font-weight="normal" fill="rgb(68, 68, 68)"><tspan x="470.41668701171875" y="392.5166778564453"><tspan>性能指标：完成耗时</tspan></tspan></text></g><image xmlns:xlink="http://www.w3.org/1999/xlink" xlink:href="https://www.processon.com/assets/images/mind/borderL.png" transform="translate(457.816650390625,370.00001525878906)" width="1.6" height="34" preserveAspectRatio="none meet"></image><image xmlns:xlink="http://www.w3.org/1999/xlink" xlink:href="https://www.processon.com/assets/images/mind/borderT.png" transform="translate(457.816650390625,370.00001525878906)" width="178" height="1" preserveAspectRatio="none meet"></image><image xmlns:xlink="http://www.w3.org/1999/xlink" xlink:href="https://www.processon.com/assets/images/mind/borderB.png" transform="translate(459.216650390625,404.00001525878906)" width="174" height="1" preserveAspectRatio="none meet"></image><image xmlns:xlink="http://www.w3.org/1999/xlink" xlink:href="https://www.processon.com/assets/images/mind/borderR.png" transform="translate(634.216650390625,370.00001525878906)" width="1.6" height="34" preserveAspectRatio="none meet"></image></g><g id="fa5914be7279"><rect x="457.816650390625" y="420.9166717529297" rx="1px" ry="1px" width="195" height="37" style="fill: transparent; "></rect><g><text text-anchor="start" align="top" anchor="start" font-family="微软雅黑" font-size="17px" font-weight="normal" fill="rgb(68, 68, 68)"><tspan x="470.41668701171875" y="445.43333435058594"><tspan>公平性指标：响应耗时</tspan></tspan></text></g><image xmlns:xlink="http://www.w3.org/1999/xlink" xlink:href="https://www.processon.com/assets/images/mind/borderL.png" transform="translate(457.816650390625,422.9166717529297)" width="1.6" height="34" preserveAspectRatio="none meet"></image><image xmlns:xlink="http://www.w3.org/1999/xlink" xlink:href="https://www.processon.com/assets/images/mind/borderT.png" transform="translate(457.816650390625,422.9166717529297)" width="195" height="1" preserveAspectRatio="none meet"></image><image xmlns:xlink="http://www.w3.org/1999/xlink" xlink:href="https://www.processon.com/assets/images/mind/borderB.png" transform="translate(459.216650390625,456.9166717529297)" width="191" height="1" preserveAspectRatio="none meet"></image><image xmlns:xlink="http://www.w3.org/1999/xlink" xlink:href="https://www.processon.com/assets/images/mind/borderR.png" transform="translate(651.216650390625,422.9166717529297)" width="1.6" height="34" preserveAspectRatio="none meet"></image></g><g id="8577d99f290c"><rect x="448.816650390625" y="482.8333282470703" rx="1px" ry="1px" width="93" height="37" style="fill: transparent; "></rect><g><text text-anchor="start" align="top" anchor="start" font-family="微软雅黑" font-size="17px" font-weight="normal" fill="rgb(68, 68, 68)"><tspan x="461.41668701171875" y="507.34999084472656"><tspan>先进先出</tspan></tspan></text></g><image xmlns:xlink="http://www.w3.org/1999/xlink" xlink:href="https://www.processon.com/assets/images/mind/borderL.png" transform="translate(448.816650390625,484.8333282470703)" width="1.6" height="34" preserveAspectRatio="none meet"></image><image xmlns:xlink="http://www.w3.org/1999/xlink" xlink:href="https://www.processon.com/assets/images/mind/borderT.png" transform="translate(448.816650390625,484.8333282470703)" width="93" height="1" preserveAspectRatio="none meet"></image><image xmlns:xlink="http://www.w3.org/1999/xlink" xlink:href="https://www.processon.com/assets/images/mind/borderB.png" transform="translate(450.216650390625,518.8333282470703)" width="89" height="1" preserveAspectRatio="none meet"></image><image xmlns:xlink="http://www.w3.org/1999/xlink" xlink:href="https://www.processon.com/assets/images/mind/borderR.png" transform="translate(540.216650390625,484.8333282470703)" width="1.6" height="34" preserveAspectRatio="none meet"></image></g><g id="5f573798964e"><rect x="448.816650390625" y="535.7500152587891" rx="1px" ry="1px" width="127" height="37" style="fill: transparent; "></rect><g><text text-anchor="start" align="top" anchor="start" font-family="微软雅黑" font-size="17px" font-weight="normal" fill="rgb(68, 68, 68)"><tspan x="461.41668701171875" y="560.2666778564453"><tspan>最短任务优先</tspan></tspan></text></g><image xmlns:xlink="http://www.w3.org/1999/xlink" xlink:href="https://www.processon.com/assets/images/mind/borderL.png" transform="translate(448.816650390625,537.7500152587891)" width="1.6" height="34" preserveAspectRatio="none meet"></image><image xmlns:xlink="http://www.w3.org/1999/xlink" xlink:href="https://www.processon.com/assets/images/mind/borderT.png" transform="translate(448.816650390625,537.7500152587891)" width="127" height="1" preserveAspectRatio="none meet"></image><image xmlns:xlink="http://www.w3.org/1999/xlink" xlink:href="https://www.processon.com/assets/images/mind/borderB.png" transform="translate(450.216650390625,571.7500152587891)" width="123" height="1" preserveAspectRatio="none meet"></image><image xmlns:xlink="http://www.w3.org/1999/xlink" xlink:href="https://www.processon.com/assets/images/mind/borderR.png" transform="translate(574.216650390625,537.7500152587891)" width="1.6" height="34" preserveAspectRatio="none meet"></image></g><g id="65c57f656157"><rect x="448.816650390625" y="588.6667022705078" rx="1px" ry="1px" width="161" height="37" style="fill: transparent; "></rect><g><text text-anchor="start" align="top" anchor="start" font-family="微软雅黑" font-size="17px" font-weight="normal" fill="rgb(68, 68, 68)"><tspan x="461.41668701171875" y="613.1833038330078"><tspan>动态最短任务优先</tspan></tspan></text></g><image xmlns:xlink="http://www.w3.org/1999/xlink" xlink:href="https://www.processon.com/assets/images/mind/borderL.png" transform="translate(448.816650390625,590.6667022705078)" width="1.6" height="34" preserveAspectRatio="none meet"></image><image xmlns:xlink="http://www.w3.org/1999/xlink" xlink:href="https://www.processon.com/assets/images/mind/borderT.png" transform="translate(448.816650390625,590.6667022705078)" width="161" height="1" preserveAspectRatio="none meet"></image><image xmlns:xlink="http://www.w3.org/1999/xlink" xlink:href="https://www.processon.com/assets/images/mind/borderB.png" transform="translate(450.216650390625,624.6667022705078)" width="157" height="1" preserveAspectRatio="none meet"></image><image xmlns:xlink="http://www.w3.org/1999/xlink" xlink:href="https://www.processon.com/assets/images/mind/borderR.png" transform="translate(608.216650390625,590.6667022705078)" width="1.6" height="34" preserveAspectRatio="none meet"></image></g><g id="1949df848d41"><rect x="448.816650390625" y="641.5833282470703" rx="1px" ry="1px" width="59" height="37" style="fill: transparent; "></rect><g><text text-anchor="start" align="top" anchor="start" font-family="微软雅黑" font-size="17px" font-weight="normal" fill="rgb(68, 68, 68)"><tspan x="461.41668701171875" y="666.0999908447266"><tspan>轮盘</tspan></tspan></text></g><image xmlns:xlink="http://www.w3.org/1999/xlink" xlink:href="https://www.processon.com/assets/images/mind/borderL.png" transform="translate(448.816650390625,643.5833282470703)" width="1.6" height="34" preserveAspectRatio="none meet"></image><image xmlns:xlink="http://www.w3.org/1999/xlink" xlink:href="https://www.processon.com/assets/images/mind/borderT.png" transform="translate(448.816650390625,643.5833282470703)" width="59" height="1" preserveAspectRatio="none meet"></image><image xmlns:xlink="http://www.w3.org/1999/xlink" xlink:href="https://www.processon.com/assets/images/mind/borderB.png" transform="translate(450.216650390625,677.5833282470703)" width="55" height="1" preserveAspectRatio="none meet"></image><image xmlns:xlink="http://www.w3.org/1999/xlink" xlink:href="https://www.processon.com/assets/images/mind/borderR.png" transform="translate(506.216650390625,643.5833282470703)" width="1.6" height="34" preserveAspectRatio="none meet"></image></g><g id="dae596f63e1b"><rect x="448.816650390625" y="694.5000152587891" rx="1px" ry="1px" width="127" height="37" style="fill: transparent; "></rect><g><text text-anchor="start" align="top" anchor="start" font-family="微软雅黑" font-size="17px" font-weight="normal" fill="rgb(68, 68, 68)"><tspan x="461.41668701171875" y="719.0166778564453"><tspan>多级反馈队列</tspan></tspan></text></g><image xmlns:xlink="http://www.w3.org/1999/xlink" xlink:href="https://www.processon.com/assets/images/mind/borderL.png" transform="translate(448.816650390625,696.5000152587891)" width="1.6" height="34" preserveAspectRatio="none meet"></image><image xmlns:xlink="http://www.w3.org/1999/xlink" xlink:href="https://www.processon.com/assets/images/mind/borderT.png" transform="translate(448.816650390625,696.5000152587891)" width="127" height="1" preserveAspectRatio="none meet"></image><image xmlns:xlink="http://www.w3.org/1999/xlink" xlink:href="https://www.processon.com/assets/images/mind/borderB.png" transform="translate(450.216650390625,730.5000152587891)" width="123" height="1" preserveAspectRatio="none meet"></image><image xmlns:xlink="http://www.w3.org/1999/xlink" xlink:href="https://www.processon.com/assets/images/mind/borderR.png" transform="translate(574.216650390625,696.5000152587891)" width="1.6" height="34" preserveAspectRatio="none meet"></image></g><g id="ce493712cdcd"><rect x="309" y="188.4166717529297" rx="1px" ry="1px" width="229" height="48" style="fill: rgb(255, 249, 217); "></rect><g><text text-anchor="start" align="top" anchor="start" font-family="微软雅黑" font-size="20px" font-weight="normal" fill="rgb(68, 68, 68)"><tspan x="323.3999938964844" y="218.83334350585938"><tspan>机制：有限度直接执行</tspan></tspan></text></g><image xmlns:xlink="http://www.w3.org/1999/xlink" xlink:href="https://www.processon.com/assets/images/mind/borderL.png" transform="translate(309,191.4166717529297)" width="2.4000000000000004" height="43.5" preserveAspectRatio="none meet"></image><image xmlns:xlink="http://www.w3.org/1999/xlink" xlink:href="https://www.processon.com/assets/images/mind/borderT.png" transform="translate(309,191.4166717529297)" width="229" height="1.5" preserveAspectRatio="none meet"></image><image xmlns:xlink="http://www.w3.org/1999/xlink" xlink:href="https://www.processon.com/assets/images/mind/borderB.png" transform="translate(311.1,234.9166717529297)" width="223" height="1.5" preserveAspectRatio="none meet"></image><image xmlns:xlink="http://www.w3.org/1999/xlink" xlink:href="https://www.processon.com/assets/images/mind/borderR.png" transform="translate(535.6,191.4166717529297)" width="2.4000000000000004" height="43.5" preserveAspectRatio="none meet"></image></g><g id="9b2c9e1a05e2"><rect x="578.816650390625" y="120" rx="1px" ry="1px" width="684" height="37" style="fill: transparent; "></rect><g><text text-anchor="start" align="top" anchor="start" font-family="微软雅黑" font-size="17px" font-weight="normal" fill="rgb(68, 68, 68)"><tspan x="591.4166870117188" y="144.51666259765625"><tspan>硬件支持：用户态和内核态权限控制(CPU模式)，提供trap以及return-from-trap来切换</tspan></tspan></text></g><image xmlns:xlink="http://www.w3.org/1999/xlink" xlink:href="https://www.processon.com/assets/images/mind/borderL.png" transform="translate(578.816650390625,122)" width="1.6" height="34" preserveAspectRatio="none meet"></image><image xmlns:xlink="http://www.w3.org/1999/xlink" xlink:href="https://www.processon.com/assets/images/mind/borderT.png" transform="translate(578.816650390625,122)" width="684" height="1" preserveAspectRatio="none meet"></image><image xmlns:xlink="http://www.w3.org/1999/xlink" xlink:href="https://www.processon.com/assets/images/mind/borderB.png" transform="translate(580.216650390625,156)" width="680" height="1" preserveAspectRatio="none meet"></image><image xmlns:xlink="http://www.w3.org/1999/xlink" xlink:href="https://www.processon.com/assets/images/mind/borderR.png" transform="translate(1261.216650390625,122)" width="1.6" height="34" preserveAspectRatio="none meet"></image></g><g id="edf1096c41fc"><rect x="578.816650390625" y="172.9166717529297" rx="1px" ry="1px" width="348" height="37" style="fill: transparent; "></rect><g><text text-anchor="start" align="top" anchor="start" font-family="微软雅黑" font-size="17px" font-weight="normal" fill="rgb(68, 68, 68)"><tspan x="591.4166870117188" y="197.43333435058594"><tspan>硬件支持：trap助手表，在系统启动时设置</tspan></tspan></text></g><image xmlns:xlink="http://www.w3.org/1999/xlink" xlink:href="https://www.processon.com/assets/images/mind/borderL.png" transform="translate(578.816650390625,174.9166717529297)" width="1.6" height="34" preserveAspectRatio="none meet"></image><image xmlns:xlink="http://www.w3.org/1999/xlink" xlink:href="https://www.processon.com/assets/images/mind/borderT.png" transform="translate(578.816650390625,174.9166717529297)" width="348" height="1" preserveAspectRatio="none meet"></image><image xmlns:xlink="http://www.w3.org/1999/xlink" xlink:href="https://www.processon.com/assets/images/mind/borderB.png" transform="translate(580.216650390625,208.9166717529297)" width="344" height="1" preserveAspectRatio="none meet"></image><image xmlns:xlink="http://www.w3.org/1999/xlink" xlink:href="https://www.processon.com/assets/images/mind/borderR.png" transform="translate(925.216650390625,174.9166717529297)" width="1.6" height="34" preserveAspectRatio="none meet"></image></g><g id="cacda1d0bc53"><rect x="578.816650390625" y="245.83334350585938" rx="1px" ry="1px" width="495" height="59" style="fill: transparent; "></rect><g><text text-anchor="start" align="top" anchor="start" font-family="微软雅黑" font-size="17px" font-weight="normal" fill="rgb(68, 68, 68)"><tspan x="591.4166870117188" y="268.43333435058594"><tspan>操作系统：提供系统调用给用户，</tspan></tspan><tspan x="591.4166870117188" y="292.23333435058595"><tspan>其中封装了trap/return-from-trap汇编，设置了系统调用编号</tspan></tspan></text></g><image xmlns:xlink="http://www.w3.org/1999/xlink" xlink:href="https://www.processon.com/assets/images/mind/borderL.png" transform="translate(578.816650390625,247.83334350585938)" width="1.6" height="56" preserveAspectRatio="none meet"></image><image xmlns:xlink="http://www.w3.org/1999/xlink" xlink:href="https://www.processon.com/assets/images/mind/borderT.png" transform="translate(578.816650390625,247.83334350585938)" width="495" height="1" preserveAspectRatio="none meet"></image><image xmlns:xlink="http://www.w3.org/1999/xlink" xlink:href="https://www.processon.com/assets/images/mind/borderB.png" transform="translate(580.216650390625,303.8333435058594)" width="491" height="1" preserveAspectRatio="none meet"></image><image xmlns:xlink="http://www.w3.org/1999/xlink" xlink:href="https://www.processon.com/assets/images/mind/borderR.png" transform="translate(1072.216650390625,247.83334350585938)" width="1.6" height="56" preserveAspectRatio="none meet"></image></g><g id="9f7ddbfc82bd"><rect x="309" y="27" rx="1px" ry="1px" width="400" height="48" style="fill: rgb(255, 249, 217); "></rect><g><text text-anchor="start" align="top" anchor="start" font-family="微软雅黑" font-size="20px" font-weight="normal" fill="rgb(68, 68, 68)"><tspan x="323.3999938964844" y="57.41667175292969"><tspan>核心诉求：1、高效，2、保留OS的控制权</tspan></tspan></text></g><image xmlns:xlink="http://www.w3.org/1999/xlink" xlink:href="https://www.processon.com/assets/images/mind/borderL.png" transform="translate(309,30)" width="2.4000000000000004" height="43.5" preserveAspectRatio="none meet"></image><image xmlns:xlink="http://www.w3.org/1999/xlink" xlink:href="https://www.processon.com/assets/images/mind/borderT.png" transform="translate(309,30)" width="400" height="1.5" preserveAspectRatio="none meet"></image><image xmlns:xlink="http://www.w3.org/1999/xlink" xlink:href="https://www.processon.com/assets/images/mind/borderB.png" transform="translate(311.1,73.5)" width="394" height="1.5" preserveAspectRatio="none meet"></image><image xmlns:xlink="http://www.w3.org/1999/xlink" xlink:href="https://www.processon.com/assets/images/mind/borderR.png" transform="translate(706.6,30)" width="2.4000000000000004" height="43.5" preserveAspectRatio="none meet"></image></g><g id="d90be4bf56f0"><rect x="23" y="328.00001525878906" rx="1px" ry="1px" width="216" height="110" style="fill: rgb(255, 249, 217); "></rect><g><text text-anchor="start" align="top" anchor="start" font-family="微软雅黑" font-size="34px" font-weight="normal" fill="rgb(51, 51, 51)"><tspan x="48.399993896484375" y="396.03334045410156"><tspan>CPU虚拟</tspan></tspan><tspan x="48.399993896484375" y="443.6333404541016"><tspan>化</tspan></tspan></text></g><image xmlns:xlink="http://www.w3.org/1999/xlink" xlink:href="https://www.processon.com/assets/images/mind/borderL.png" transform="translate(23,335.00001525878906)" width="5.6000000000000005" height="99.5" preserveAspectRatio="none meet"></image><image xmlns:xlink="http://www.w3.org/1999/xlink" xlink:href="https://www.processon.com/assets/images/mind/borderT.png" transform="translate(23,335.00001525878906)" width="216" height="3.5" preserveAspectRatio="none meet"></image><image xmlns:xlink="http://www.w3.org/1999/xlink" xlink:href="https://www.processon.com/assets/images/mind/borderB.png" transform="translate(27.9,434.50001525878906)" width="202" height="3.5" preserveAspectRatio="none meet"></image><image xmlns:xlink="http://www.w3.org/1999/xlink" xlink:href="https://www.processon.com/assets/images/mind/borderR.png" transform="translate(233.4,335.00001525878906)" width="5.6000000000000005" height="99.5" preserveAspectRatio="none meet"></image></g><g transform="translate(312, 361.00001525878906)" id="sdjakdjak0"><g id="subline_21430902f4a7" transform="translate(0.5,-0.5)"><path id="line_c73df92aa07e" d="M 103 184 L 121 184 L 121 29 A 4 4 0 0 1 125 25 L 147.816650390625 25" p="21430902f4a7" stroke="rgb(110,110,110)" fill="none" stroke-linecap="square" stroke-width="1"></path><path id="line_fa5914be7279" d="M 103 184 L 121 184 L 121 82 A 4 4 0 0 1 125 78 L 147.816650390625 78" p="21430902f4a7" stroke="rgb(110,110,110)" fill="none" stroke-linecap="square" stroke-width="1"></path><path id="line_8577d99f290c" d="M 103 184 L 121 184 L 121 144 A 4 4 0 0 1 125 140 L 138.816650390625 140" p="21430902f4a7" stroke="rgb(110,110,110)" fill="none" stroke-linecap="square" stroke-width="1"></path><path id="line_5f573798964e" d="M 103 184 L 121 184 L 121 189 A 4 4 0 0 0 125 193 L 138.816650390625 193" p="21430902f4a7" stroke="rgb(110,110,110)" fill="none" stroke-linecap="square" stroke-width="1"></path><path id="line_65c57f656157" d="M 103 184 L 121 184 L 121 242 A 4 4 0 0 0 125 246 L 138.816650390625 246" p="21430902f4a7" stroke="rgb(110,110,110)" fill="none" stroke-linecap="square" stroke-width="1"></path><path id="line_1949df848d41" d="M 103 184 L 121 184 L 121 295 A 4 4 0 0 0 125 299 L 138.816650390625 299" p="21430902f4a7" stroke="rgb(110,110,110)" fill="none" stroke-linecap="square" stroke-width="1"></path><path id="line_dae596f63e1b" d="M 103 184 L 121 184 L 121 347 A 4 4 0 0 0 125 351 L 138.816650390625 351" p="21430902f4a7" stroke="rgb(110,110,110)" fill="none" stroke-linecap="square" stroke-width="1"></path></g><g transform="translate(0.5,0)"></g><g class="svg-summary-con" transform="translate(0.5,0.5)"></g><g class="svg-boundary-con" transform="translate(0.5,0.5)"><path id="bo_a8ee024447a9" stroke-linejoin="round" fill="#bf1e1b" fill-opacity="0.05" stroke="#333333" stroke-width="1" stroke-dasharray="0" d=" M 139 10 C 139 10 139 0 149 0 L 336 0 C 336 0 346 0 346 10 L 346 93 C 346 93 346 103 336 103 L 149 103 C 149 103 139 103 139 93 L 139 10"></path></g></g><g transform="translate(312, 112)" id="sdjakdjak1"><g id="subline_ce493712cdcd" transform="translate(0.5,-0.5)"><path id="line_9b2c9e1a05e2" d="M 223 101 L 241 101 L 241 30 A 4 4 0 0 1 245 26 L 268.816650390625 26" p="ce493712cdcd" stroke="rgb(110,110,110)" fill="none" stroke-linecap="square" stroke-width="1"></path><path id="line_edf1096c41fc" d="M 223 101 L 241 101 L 241 83 A 4 4 0 0 1 245 79 L 268.816650390625 79" p="ce493712cdcd" stroke="rgb(110,110,110)" fill="none" stroke-linecap="square" stroke-width="1"></path><path id="line_cacda1d0bc53" d="M 223 101 L 241 101 L 241 159 A 4 4 0 0 0 245 163 L 268.816650390625 163" p="ce493712cdcd" stroke="rgb(110,110,110)" fill="none" stroke-linecap="square" stroke-width="1"></path></g><g transform="translate(0.5,0)"></g><g class="svg-summary-con" transform="translate(0.5,0.5)"></g><g class="svg-boundary-con" transform="translate(0.5,0.5)"><path id="bo_55ecca8c7d83" stroke-linejoin="round" fill="#63abf7" fill-opacity="0.05" stroke="#333333" stroke-width="2" stroke-dasharray="6,3" d=" M 259 1 L 956 1 L 956 104 L 259 104 L 259 1"></path><path id="bo_f89a58f032e7" stroke-linejoin="round" fill="rgb(113, 203, 45)" fill-opacity="0.05" stroke="#333333" stroke-width="2" stroke-dasharray="6,3" d=" M 259 126 L 767 126 L 767 199 L 259 199 L 259 126"></path></g></g><g transform="translate(312, 30)" id="sdjakdjak2"><g id="subline_9f7ddbfc82bd" transform="translate(0.5,-0.5)"></g><g transform="translate(0.5,0)"></g><g class="svg-summary-con" transform="translate(0.5,0.5)"></g><g class="svg-boundary-con" transform="translate(0.5,0.5)"></g></g><g transform="translate(30, 335.00001525878906)" id="sdjakdjak3"><g id="subline_d90be4bf56f0" transform="translate(0.5,-0.5)"></g><g transform="translate(0.5,0)"></g><g class="svg-summary-con" transform="translate(0.5,0.5)"></g><g class="svg-boundary-con" transform="translate(0.5,0.5)"></g></g></svg>